<svg viewBox="0 0 256 256" xmlns="http://www.w3.org/2000/svg" fill="black"><g><path d="M119.6,0.07c-0.55,0.05-2.3,0.22-3.88,0.35C79.38,3.7,45.32,23.31,23.75,53.46C11.74,70.23,4.05,89.24,1.15,109.38C0.13,116.42,0,118.49,0,128.03c0,9.53,0.13,11.61,1.15,18.64c6.96,48.06,41.17,88.44,87.56,103.41c8.31,2.68,17.07,4.5,27.03,5.58c3.88,0.43,20.65,0.43,24.54,0c17.19-1.9,31.75-6.14,46.14-13.45c2.2-1.13,2.63-1.43,2.33-1.68c-0.2-0.15-9.58-12.74-20.85-27.99l-20.47-27.65l-25.65-37.96c-14.11-20.87-25.72-37.93-25.82-37.96c-0.1-0.03-0.2,16.83-0.25,37.43c-0.08,36.06-0.1,37.52-0.55,38.37c-0.65,1.23-1.15,1.73-2.2,2.28c-0.8,0.4-1.5,0.47-5.28,0.47h-4.33l-1.15-0.73c-0.75-0.48-1.3-1.1-1.68-1.83l-0.53-1.13l0.05-50.17l0.08-50.19l0.78-0.98c0.4-0.53,1.25-1.21,1.85-1.54c1.03-0.5,1.43-0.55,5.77-0.55c5.1,0,5.95,0.2,7.27,1.65c0.38,0.4,13.89,21.32,30.5,46.51c16.61,25.19,39.38,59.6,50.54,76.5l20.27,30.7l1.03-0.68c9.08-5.9,18.7-14.31,26.32-23.08c16.19-18.59,26.65-41.26,30.15-65.43c1.03-7.03,1.15-9.11,1.15-18.64c0-9.53-0.13-11.61-1.15-18.64c-6.96-48.06-41.17-88.44-87.56-103.41c-8.18-2.65-16.89-4.48-26.65-5.59C138.23,0.14,121.69-0.13,119.6,0.07z M172.02,77.48c1.2,0.6,2.18,1.75,2.54,2.95c0.2,0.65,0.25,14.58,0.2,45.9l-0.08,44.99l-7.93-12.16l-7.96-12.16v-32.7c0-21.14,0.1-33.02,0.15-33.58c0.4-1.4,1.28-2.5,2.48-3.15c1.03-0.53,1.4-0.58,5.33-0.58C170.54,76.98,171.19,77.03,172.02,77.48z"/></g></svg>
