<svg xmlns="http://www.w3.org/2000/svg" viewBox="0 0 24 24" fill="none"><rect width="24" height="24" rx="4" fill="#05010A"/><path fill="#E5E5EA" d="M4 13.5c0 2.7 2.1 4.9 4.8 4.9h5.7c3.1 0 5.5-2.4 5.5-5.5 0-.4 0-.8-.1-1.1H18c-.3-1-1.1-1.7-2.1-1.7-.3 0-.6.1-.9.2l-.3.1-.2-.3c-.4-.6-1-1-1.7-1.1h-.4v1.6H4.8C4.3 11.4 4 12.4 4 13.5Zm1.8-2.1H8V9H5.8v2.4Zm2.7 0h2.2V9H8.5v2.4Zm2.7 0h2.2V9h-2.2v2.4Zm2.7 0h2.2V9h-2.2v2.4Zm-8.1 2.9c.3 1.6 1.7 2.8 3.4 2.8h5.7c1.9 0 3.5-1.6 3.5-3.5 0-.2 0-.4-.1-.6H6.5Z"/></svg>