<svg xmlns="http://www.w3.org/2000/svg" viewBox="0 0 24 24" fill="none"><circle cx="12" cy="12" r="11" fill="#05010A"/><path fill="#E5E5EA" d="M12 2.5C7.3 2.5 3.5 6.3 3.5 11c0 3.8 2.4 7 5.7 8.1.4.1.5-.2.5-.4v-1.6c-2.3.5-2.8-1.1-2.8-1.1-.4-.9-.9-1.1-.9-1.1-.8-.5.1-.5.1-.5.9.1 1.4 1 1.4 1 .8 1.4 2.1 1 2.6.7.1-.6.3-1 .5-1.2-1.8-.2-3.6-.9-3.6-3.9 0-.9.3-1.6.8-2.2-.1-.2-.4-1 .1-2.1 0 0 .7-.2 2.2.8.7-.2 1.4-.3 2.1-.3s1.4.1 2.1.3c1.5-1 2.2-.8 2.2-.8.5 1.1.2 1.9.1 2.1.5.6.8 1.3.8 2.2 0 3-1.8 3.6-3.6 3.9.3.3.5.8.5 1.6v2.3c0 .2.1.5.5.4 3.3-1.1 5.7-4.3 5.7-8.1 0-4.7-3.8-8.5-8.5-8.5Z"/></svg>