<svg xmlns="http://www.w3.org/2000/svg" viewBox="0 0 24 24" fill="none"><rect width="24" height="24" rx="4" fill="#05010A"/><path fill="#E5E5EA" d="M4 12c0-2.7 2.9-4.5 8-4.5s8 1.8 8 4.5-2.9 4.5-8 4.5-8-1.8-8-4.5Zm3.4-.2.5-2.8h1.7c1.1 0 1.8.6 1.6 1.8-.2 1.3-1 2-2.2 2H8l-.2 1.3H6.9l.5-2.3Zm1.1.9h.6c.6 0 1-.4 1.1-1 .1-.5-.2-.8-.8-.8h-.6l-.3 1.8Zm3.8-3.7h1.2l-.7 3.9c-.1.6 0 .8.5.8.2 0 .3 0 .4-.1l-.2 1.2c-.2.1-.6.2-1 .2-1.2 0-1.7-.7-1.5-1.9l.8-4.1Zm2.6.9.2-1.1h1.3l-.2 1.1h1.1c1.1 0 1.8.6 1.6 1.8-.2 1.3-1 2-2.2 2h-.6L17 15.8h-1.2l.7-3.4h-1l.2-1.3h1Z"/></svg>