<svg xmlns="http://www.w3.org/2000/svg" viewBox="0 0 24 24" fill="none"><rect width="24" height="24" rx="4" fill="#05010A"/><path fill="#E5E5EA" d="M12 4c-2.4 0-4.3 1.5-4.3 3.8 0 1.4.5 2.3 1.5 3l-.5 1.6c-.1.3.2.6.5.5l1.9-.6c.3.1.6.1.9.1 2.4 0 4.3-1.5 4.3-3.8C16.3 5.5 14.4 4 12 4Zm-1.4 2.1c.4 0 .7.3.7.7 0 .5-.3.8-.7.8a.8.8 0 0 1 0-1.5Zm2.8 0c.4 0 .7.3.7.7 0 .5-.3.8-.7.8a.8.8 0 0 1 0-1.5Zm-4 8.5c0-1 .7-1.8 1.7-2.1l.4.6c-.7.2-1.1.7-1.1 1.4 0 .9.7 1.5 1.8 1.5 1.1 0 1.8-.6 1.8-1.5 0-.7-.4-1.2-1.1-1.4l.4-.6c1 .3 1.7 1.1 1.7 2.1 0 1.5-1.3 2.6-2.8 2.6s-2.8-1.1-2.8-2.6Z"/></svg>