<svg xmlns="http://www.w3.org/2000/svg" viewBox="0 0 24 24" fill="none"><rect width="24" height="24" rx="4" fill="#05010A"/><path fill="#E5E5EA" d="M12.1 3.5c-2.2 0-3.7.6-3.7 2.9v1.9h3.8v.9H6.6c-2.4 0-3.6 1.4-3.6 3.5 0 2 .9 3.2 3.1 3.2h1.3v-2c0-2.3 1.4-3.5 3.7-3.5h2.5c1.9 0 3.4-1.3 3.4-3.3 0-2.4-1.6-3.6-3.9-3.6h-1Zm-1.9 1.7c.4 0 .7.3.7.7s-.3.7-.7.7a.7.7 0 1 1 0-1.4Zm1.7 7.4c-1.9 0-3.4 1.2-3.4 3.4 0 2.2 1.6 3.5 3.8 3.5h1.4c2.1 0 3.7-.9 3.7-3.1v-2h-3.7v-.9h5.4c2.3 0 3.3-1.6 3.3-3.6 0-1.9-.8-3.2-3-3.2h-1.3v1.9c0 2.5-1.5 3.6-3.7 3.6h-2.2Zm2.1 4.7c-.4 0-.7-.3-.7-.7s.3-.7.7-.7.7.3.7.7-.3.7-.7.7Z"/></svg>