<svg xmlns="http://www.w3.org/2000/svg" viewBox="0 0 24 24" fill="none"><circle cx="12" cy="12" r="11" fill="#05010A"/><path fill="#E5E5EA" d="M5.5 12c0 2.5 1.4 4.6 3.5 5.7L6.1 9.1A6.5 6.5 0 0 0 5.5 12Zm11.9-.8c0-.8-.3-1.3-.5-1.7-.3-.5-.5-.9-.5-1.4 0-.6.4-1.1.9-1.1h.1A6.6 6.6 0 0 0 12 5.4c-2.5 0-4.6 1.4-5.7 3.5.2 0 .3.1.5.1.5 0 1.3-.1 1.3-.1.3 0 .3.4 0 .4 0 0-.3 0-.7.1l2.3 6.9 1.4-4.2-1-2.7c-.3 0-.6-.1-.6-.1-.3 0-.2-.4 0-.4 0 0 1.1.1 1.7.1.5 0 1.3-.1 1.3-.1.3 0 .3.4 0 .4 0 0-.3 0-.7.1l2.3 6.8.6-2.1c.3-1 .5-1.7.5-2.3Zm-4 1.1-1.9 5.6a6.6 6.6 0 0 0 5.2-5.2l-1.1-3.4-2.2 8Z"/></svg>